<svg xmlns="http://www.w3.org/2000/svg" xmlns:xlink="http://www.w3.org/1999/xlink" width="350" zoomAndPan="magnify" viewBox="0 0 262.5 262.500001" height="350" preserveAspectRatio="xMidYMid meet" version="1.0"><defs><g/><clipPath id="id1"><path d="M 0 0 L 262 0 L 262 262 L 0 262 Z M 0 0 " clip-rule="nonzero"/></clipPath></defs><g clip-path="url(#id1)"><path fill="#31ff66" d="M 262.5 131.25 C 262.5 133.398438 262.445312 135.542969 262.34375 137.691406 C 262.238281 139.835938 262.078125 141.976562 261.867188 144.113281 C 261.65625 146.253906 261.394531 148.382812 261.078125 150.507812 C 260.765625 152.632812 260.398438 154.75 259.976562 156.855469 C 259.558594 158.960938 259.089844 161.058594 258.566406 163.140625 C 258.042969 165.226562 257.472656 167.292969 256.847656 169.351562 C 256.226562 171.40625 255.550781 173.445312 254.828125 175.464844 C 254.105469 177.488281 253.332031 179.492188 252.507812 181.476562 C 251.6875 183.460938 250.816406 185.425781 249.898438 187.367188 C 248.980469 189.308594 248.015625 191.226562 247.003906 193.121094 C 245.988281 195.015625 244.929688 196.882812 243.828125 198.726562 C 242.722656 200.566406 241.574219 202.382812 240.378906 204.167969 C 239.1875 205.953125 237.949219 207.710938 236.671875 209.433594 C 235.390625 211.160156 234.070312 212.855469 232.707031 214.515625 C 231.34375 216.175781 229.941406 217.800781 228.5 219.390625 C 227.058594 220.984375 225.578125 222.539062 224.058594 224.058594 C 222.539062 225.578125 220.984375 227.058594 219.390625 228.5 C 217.800781 229.941406 216.175781 231.34375 214.515625 232.707031 C 212.855469 234.070312 211.160156 235.390625 209.433594 236.671875 C 207.710938 237.949219 205.953125 239.1875 204.167969 240.378906 C 202.382812 241.574219 200.566406 242.722656 198.726562 243.828125 C 196.882812 244.929688 195.015625 245.988281 193.121094 247.003906 C 191.226562 248.015625 189.308594 248.980469 187.367188 249.898438 C 185.425781 250.816406 183.460938 251.6875 181.476562 252.507812 C 179.492188 253.332031 177.488281 254.105469 175.464844 254.828125 C 173.445312 255.550781 171.40625 256.226562 169.351562 256.847656 C 167.292969 257.472656 165.226562 258.042969 163.140625 258.566406 C 161.058594 259.089844 158.960938 259.558594 156.855469 259.976562 C 154.75 260.398438 152.632812 260.765625 150.507812 261.078125 C 148.382812 261.394531 146.253906 261.65625 144.113281 261.867188 C 141.976562 262.078125 139.835938 262.238281 137.691406 262.34375 C 135.542969 262.445312 133.398438 262.5 131.25 262.5 C 129.101562 262.5 126.957031 262.445312 124.808594 262.34375 C 122.664062 262.238281 120.523438 262.078125 118.386719 261.867188 C 116.246094 261.65625 114.117188 261.394531 111.992188 261.078125 C 109.867188 260.765625 107.75 260.398438 105.644531 259.976562 C 103.539062 259.558594 101.441406 259.089844 99.359375 258.566406 C 97.273438 258.042969 95.207031 257.472656 93.148438 256.847656 C 91.09375 256.226562 89.054688 255.550781 87.03125 254.828125 C 85.011719 254.105469 83.007812 253.332031 81.023438 252.507812 C 79.039062 251.6875 77.074219 250.816406 75.132812 249.898438 C 73.191406 248.980469 71.273438 248.015625 69.378906 247.003906 C 67.484375 245.988281 65.617188 244.929688 63.773438 243.828125 C 61.929688 242.722656 60.117188 241.574219 58.332031 240.378906 C 56.546875 239.1875 54.789062 237.949219 53.0625 236.671875 C 51.339844 235.390625 49.644531 234.070312 47.984375 232.707031 C 46.324219 231.34375 44.699219 229.941406 43.109375 228.5 C 41.515625 227.058594 39.960938 225.578125 38.441406 224.058594 C 36.921875 222.539062 35.441406 220.984375 34 219.390625 C 32.558594 217.800781 31.15625 216.175781 29.792969 214.515625 C 28.429688 212.855469 27.109375 211.160156 25.828125 209.433594 C 24.550781 207.710938 23.3125 205.953125 22.121094 204.167969 C 20.925781 202.382812 19.777344 200.566406 18.671875 198.726562 C 17.570312 196.882812 16.511719 195.015625 15.496094 193.121094 C 14.484375 191.226562 13.519531 189.308594 12.601562 187.367188 C 11.683594 185.425781 10.8125 183.460938 9.992188 181.476562 C 9.167969 179.492188 8.394531 177.488281 7.671875 175.464844 C 6.949219 173.445312 6.273438 171.40625 5.652344 169.351562 C 5.027344 167.292969 4.457031 165.226562 3.933594 163.140625 C 3.410156 161.058594 2.941406 158.960938 2.523438 156.855469 C 2.101562 154.75 1.734375 152.632812 1.421875 150.507812 C 1.105469 148.382812 0.84375 146.253906 0.632812 144.113281 C 0.421875 141.976562 0.261719 139.835938 0.15625 137.691406 C 0.0507812 135.542969 0 133.398438 0 131.25 C 0 129.101562 0.0507812 126.957031 0.15625 124.808594 C 0.261719 122.664062 0.421875 120.523438 0.632812 118.386719 C 0.84375 116.246094 1.105469 114.117188 1.421875 111.992188 C 1.734375 109.867188 2.101562 107.75 2.523438 105.644531 C 2.941406 103.539062 3.410156 101.441406 3.933594 99.359375 C 4.457031 97.273438 5.027344 95.207031 5.652344 93.148438 C 6.273438 91.09375 6.949219 89.054688 7.671875 87.03125 C 8.394531 85.011719 9.167969 83.007812 9.992188 81.023438 C 10.8125 79.039062 11.683594 77.074219 12.601562 75.132812 C 13.519531 73.191406 14.484375 71.273438 15.496094 69.378906 C 16.511719 67.484375 17.570312 65.617188 18.671875 63.773438 C 19.777344 61.929688 20.925781 60.117188 22.121094 58.332031 C 23.3125 56.546875 24.550781 54.789062 25.828125 53.066406 C 27.109375 51.339844 28.429688 49.644531 29.792969 47.984375 C 31.15625 46.324219 32.558594 44.699219 34 43.109375 C 35.441406 41.515625 36.921875 39.960938 38.441406 38.441406 C 39.960938 36.921875 41.515625 35.441406 43.109375 34 C 44.699219 32.558594 46.324219 31.15625 47.984375 29.792969 C 49.644531 28.429688 51.339844 27.109375 53.0625 25.828125 C 54.789062 24.550781 56.546875 23.3125 58.332031 22.121094 C 60.117188 20.925781 61.929688 19.777344 63.773438 18.671875 C 65.617188 17.570312 67.484375 16.511719 69.378906 15.496094 C 71.273438 14.484375 73.191406 13.519531 75.132812 12.601562 C 77.074219 11.683594 79.039062 10.8125 81.023438 9.992188 C 83.007812 9.167969 85.011719 8.394531 87.03125 7.671875 C 89.054688 6.949219 91.09375 6.273438 93.148438 5.652344 C 95.207031 5.027344 97.273438 4.457031 99.359375 3.933594 C 101.441406 3.410156 103.539062 2.941406 105.644531 2.523438 C 107.75 2.101562 109.867188 1.734375 111.992188 1.421875 C 114.117188 1.105469 116.246094 0.84375 118.386719 0.632812 C 120.523438 0.421875 122.664062 0.261719 124.808594 0.15625 C 126.957031 0.0507812 129.101562 0 131.25 0 C 133.398438 0 135.542969 0.0507812 137.691406 0.15625 C 139.835938 0.261719 141.976562 0.421875 144.113281 0.632812 C 146.253906 0.84375 148.382812 1.105469 150.507812 1.421875 C 152.632812 1.734375 154.75 2.101562 156.855469 2.523438 C 158.960938 2.941406 161.058594 3.410156 163.140625 3.933594 C 165.226562 4.457031 167.292969 5.027344 169.351562 5.652344 C 171.40625 6.273438 173.445312 6.949219 175.464844 7.671875 C 177.488281 8.394531 179.492188 9.167969 181.476562 9.992188 C 183.460938 10.8125 185.425781 11.683594 187.367188 12.601562 C 189.308594 13.519531 191.226562 14.484375 193.121094 15.496094 C 195.015625 16.511719 196.882812 17.570312 198.726562 18.671875 C 200.566406 19.777344 202.382812 20.925781 204.167969 22.121094 C 205.953125 23.3125 207.710938 24.550781 209.433594 25.828125 C 211.160156 27.109375 212.855469 28.429688 214.515625 29.792969 C 216.175781 31.15625 217.800781 32.558594 219.390625 34 C 220.984375 35.441406 222.539062 36.921875 224.058594 38.441406 C 225.578125 39.960938 227.058594 41.515625 228.5 43.109375 C 229.941406 44.699219 231.34375 46.324219 232.707031 47.984375 C 234.070312 49.644531 235.390625 51.339844 236.671875 53.066406 C 237.949219 54.789062 239.1875 56.546875 240.378906 58.332031 C 241.574219 60.117188 242.722656 61.929688 243.828125 63.773438 C 244.929688 65.617188 245.988281 67.484375 247.003906 69.378906 C 248.015625 71.273438 248.980469 73.191406 249.898438 75.132812 C 250.816406 77.074219 251.6875 79.039062 252.507812 81.023438 C 253.332031 83.007812 254.105469 85.011719 254.828125 87.03125 C 255.550781 89.054688 256.226562 91.09375 256.847656 93.148438 C 257.472656 95.207031 258.042969 97.273438 258.566406 99.359375 C 259.089844 101.441406 259.558594 103.539062 259.976562 105.644531 C 260.398438 107.75 260.765625 109.867188 261.078125 111.992188 C 261.394531 114.117188 261.65625 116.246094 261.867188 118.386719 C 262.078125 120.523438 262.238281 122.664062 262.34375 124.808594 C 262.445312 126.957031 262.5 129.101562 262.5 131.25 Z M 262.5 131.25 " fill-opacity="1" fill-rule="nonzero"/><path fill="#000000" d="M 131.25 262.5 C 58.878906 262.5 0 203.621094 0 131.25 C 0 58.878906 58.878906 0 131.25 0 C 203.621094 0 262.5 58.878906 262.5 131.25 C 262.5 203.621094 203.621094 262.5 131.25 262.5 Z M 131.25 12.5 C 65.769531 12.5 12.5 65.769531 12.5 131.25 C 12.5 196.726562 65.769531 250 131.25 250 C 196.726562 250 250 196.726562 250 131.25 C 250 65.769531 196.726562 12.5 131.25 12.5 Z M 131.25 12.5 " fill-opacity="1" fill-rule="nonzero"/></g><path fill="#000000" d="M 39.851562 152.695312 L 225.679688 152.695312 L 225.679688 164.039062 L 39.851562 164.039062 Z M 39.851562 152.695312 " fill-opacity="1" fill-rule="nonzero"/><path fill="#000000" d="M 42.433594 149.699219 L 42.433594 149.773438 L 225.679688 149.773438 C 225.679688 138.207031 217.410156 128.660156 206.597656 126.976562 C 206.109375 126.789062 205.625 126.679688 205.0625 126.605469 L 192.1875 124.957031 L 127.824219 99.691406 L 127.824219 99.726562 C 127.75 99.691406 127.710938 99.652344 127.636719 99.613281 L 125.917969 98.941406 C 122.363281 97.558594 118.359375 99.277344 116.9375 102.835938 L 113.457031 111.667969 C 112.40625 114.328125 113.117188 117.285156 115.0625 119.15625 C 105.109375 126.679688 91.601562 129 79.101562 124.097656 L 77.121094 123.3125 C 68.738281 120.015625 62.226562 113.988281 58.1875 106.691406 L 42.730469 106.691406 L 58.1875 106.691406 C 56.617188 104.144531 53.398438 102.386719 49.730469 102.386719 C 46.0625 102.386719 42.84375 104.144531 41.273438 106.691406 L 41.3125 106.691406 C 38.730469 109.050781 36.820312 117.621094 36.820312 127.878906 C 36.894531 139.480469 39.363281 148.953125 42.433594 149.699219 Z M 42.433594 149.699219 " fill-opacity="1" fill-rule="nonzero"/><g fill="#000000" fill-opacity="1"><g transform="translate(82.994364, 217.64988)"><g><path d="M 15.613281 0.605469 C 24.675781 0.605469 30.296875 -3.484375 30.296875 -10.546875 L 30.296875 -10.640625 C 30.296875 -17.054688 26.90625 -19.609375 17.332031 -22.585938 C 12.269531 -24.210938 10.269531 -25.324219 10.269531 -27.929688 L 10.269531 -27.976562 C 10.269531 -30.160156 12.316406 -31.832031 16.636719 -31.832031 C 20.308594 -31.832031 24.023438 -30.761719 26.765625 -28.949219 L 29.554688 -35.039062 C 26.347656 -37.128906 21.46875 -38.335938 16.589844 -38.335938 C 8.039062 -38.335938 2.925781 -34.109375 2.925781 -27.835938 L 2.925781 -27.742188 C 2.925781 -21.515625 5.761719 -18.589844 13.988281 -16.125 C 20.726562 -14.035156 22.910156 -13.011719 22.910156 -10.503906 L 22.910156 -10.457031 C 22.910156 -7.574219 19.890625 -5.949219 15.335938 -5.949219 C 11.246094 -5.949219 7.296875 -7.0625 4.507812 -8.921875 L 1.71875 -2.882812 C 5.066406 -0.652344 10.222656 0.605469 15.613281 0.605469 Z M 15.613281 0.605469 "/></g></g></g><g fill="#000000" fill-opacity="1"><g transform="translate(115.380327, 217.64988)"><g><path d="M 31.925781 -7.015625 C 34.714844 -10.503906 36.246094 -14.589844 37.546875 -20.726562 L 30.671875 -20.726562 C 29.789062 -16.542969 29.042969 -14.082031 27.464844 -11.851562 L 20.539062 -19.609375 C 26.394531 -22.539062 28.949219 -25.699219 28.949219 -29.648438 L 28.949219 -29.695312 C 28.949219 -34.945312 24.90625 -38.335938 18.125 -38.335938 C 11.523438 -38.335938 7.296875 -34.714844 7.296875 -29.554688 L 7.296875 -29.507812 C 7.296875 -26.671875 8.273438 -24.164062 10.828125 -20.910156 C 4.601562 -18.402344 1.859375 -14.871094 1.859375 -10.59375 L 1.859375 -10.503906 C 1.859375 -3.855469 7.296875 0.605469 15.335938 0.605469 C 19.9375 0.605469 23.699219 -0.417969 27.136719 -2.925781 L 29.695312 0 L 38.292969 0 Z M 13.847656 -29.183594 C 13.847656 -31.597656 15.289062 -33.132812 18.308594 -33.132812 C 21.285156 -33.132812 22.632812 -31.367188 22.632812 -29.183594 L 22.632812 -29.136719 C 22.632812 -26.90625 20.308594 -25.140625 16.636719 -23.46875 C 14.636719 -25.929688 13.847656 -27.511719 13.847656 -29.136719 Z M 9.339844 -11.058594 C 9.339844 -13.382812 10.78125 -15.148438 14.359375 -16.960938 L 22.769531 -7.527344 C 20.957031 -6.320312 18.867188 -5.714844 16.402344 -5.714844 C 12.128906 -5.714844 9.339844 -7.574219 9.339844 -10.96875 Z M 9.339844 -11.058594 "/></g></g></g><g fill="#000000" fill-opacity="1"><g transform="translate(154.921868, 217.64988)"><g><path d="M 10.6875 0.605469 C 17.472656 0.605469 22.074219 -3.160156 22.074219 -11.476562 L 22.074219 -37.6875 L 14.730469 -37.6875 L 14.730469 -12.128906 C 14.730469 -8.316406 12.5 -6.597656 9.246094 -6.597656 C 6.691406 -6.597656 3.902344 -7.761719 1.90625 -9.15625 L 0.09375 -2.507812 C 2.136719 -0.882812 5.808594 0.605469 10.6875 0.605469 Z M 10.6875 0.605469 "/></g></g></g></svg>